<?xml version="1.0" encoding="UTF-8"?>
<svg width="700pt" height="700pt" version="1.1" viewBox="0 0 700 700" xmlns="http://www.w3.org/2000/svg">
 <path d="m105 542.5c1.418 0 2.8164-0.17578 4.2188-0.50781l128.55-31.938c3.0781-0.76953 5.8984-2.3633 8.1562-4.6211l341.44-341.44c33.461-33.461 33.461-87.887 0-121.36-33.461-33.461-87.887-33.461-121.36 0l-341.43 341.45c-2.2383 2.2383-3.8516 5.0586-4.6211 8.1562l-31.953 128.55c-1.4688 5.9688 0.28125 12.25 4.6211 16.59 3.3242 3.3047 7.7852 5.125 12.371 5.125zm385.75-475.11c19.828-19.828 52.062-19.828 71.855 0 19.809 19.809 19.809 52.062 0 71.855l-43.836 43.836-71.871-71.855zm-338 338 269.41-269.41 71.871 71.855-269.43 269.41-95.621 23.746z"/>
</svg>
