<?xml version="1.0" encoding="utf-8"?>
<!-- Generator: Adobe Illustrator 16.0.0, SVG Export Plug-In . SVG Version: 6.00 Build 0)  -->
<!DOCTYPE svg PUBLIC "-//W3C//DTD SVG 1.1//EN" "http://www.w3.org/Graphics/SVG/1.1/DTD/svg11.dtd">
<svg version="1.1" id="Capa_1" xmlns="http://www.w3.org/2000/svg" xmlns:xlink="http://www.w3.org/1999/xlink" x="0px" y="0px"
	 width="317.9px" height="43.4px" viewBox="0 0 317.9 43.4" style="enable-background:new 0 0 317.9 43.4;" xml:space="preserve">
<style type="text/css">
<![CDATA[
	.st0{clip-path:url(#SVGID_2_);fill:url(#SVGID_3_);}
	.st1{clip-path:url(#SVGID_5_);fill:url(#SVGID_6_);}
	.st2{fill-rule:evenodd;clip-rule:evenodd;fill:#2C2E30;}
	.st3{clip-path:url(#SVGID_8_);fill:url(#SVGID_9_);}
]]>
</style>
<path class="st2" d="M200.4,23.4c-1.7,0-3.3,0-5.5-0.3c-0.2,0-0.3,0-0.3,0.3c0.1,0.7,0.2,1.4,0.4,2.1c0.6,1.6,1.8,2.2,3.2,2.4
	c1.8,0.2,3.6-0.1,5.4-0.7c0.3-0.1,0.4,0,0.5,0.3c0.1,0.5,0.3,1,0.4,1.5c0.1,0.3,0,0.4-0.2,0.5c-1.9,0.9-3.8,1.2-5.8,1.1
	c-0.9,0-1.8-0.2-2.7-0.5c-2.1-0.8-3.5-2.4-4.1-4.8c-0.6-2.4-0.6-4.8,0-7.1c0.8-2.9,2.6-4.5,5.1-5c1.5-0.3,3-0.3,4.4,0.2
	c2.5,0.9,3.9,2.8,4.4,5.7c0.2,1.3,0.2,2.6,0,4c-0.1,0.3-0.1,0.4-0.4,0.4H200.4z M202.2,20.8c0.6,0,0.8,0,0.7-0.9
	c0-0.2,0-0.3-0.1-0.6c-0.3-2.1-1.2-3.2-2.8-3.5c-0.8-0.1-1.6-0.1-2.4,0.1c-1.4,0.3-2.3,1.2-2.7,2.8c-0.1,0.6-0.2,1.2-0.3,1.8
	c-0.1,0.3,0.1,0.4,0.3,0.4H202.2z"/>
<path class="st2" d="M186.2,29.8c0,0.4-0.2,0.5-0.5,0.5h-2.3c-0.4,0-0.5-0.1-0.5-0.5V12c0-0.5-0.2-0.6-0.6-0.6h-4.9
	c-0.3,0-0.4-0.1-0.4-0.5V9c0-0.4,0.1-0.5,0.5-0.5h14.3c0.3,0,0.4,0.1,0.4,0.5v2c0,0.3-0.1,0.4-0.4,0.4h-5c-0.5,0-0.6,0.1-0.6,0.6
	V29.8z"/>
<path class="st2" d="M215.6,13c1.5,0,3,0.2,4.4,0.9c0.3,0.1,0.3,0.3,0.2,0.6c-0.2,0.5-0.3,1.1-0.4,1.6c-0.1,0.4-0.2,0.4-0.5,0.3
	c-1.5-0.5-3-0.6-4.5-0.5c-2.2,0.2-3.2,1.3-3.7,3.7c-0.3,1.7-0.3,3.4,0.1,5.1c0.5,2,1.6,3,3.4,3.2c1.6,0.1,3.1,0,4.6-0.5
	c0.3-0.1,0.4-0.1,0.5,0.3c0.1,0.4,0.3,1,0.4,1.5c0.1,0.4,0.1,0.6-0.3,0.7c-1.6,0.7-3.3,0.9-5.1,0.9c-1,0-1.9-0.2-2.8-0.6
	c-2-0.8-3.3-2.4-3.9-4.8c-0.6-2.2-0.6-4.5,0-6.7c0.8-3.2,2.7-4.9,5.5-5.5C214.2,13,214.9,13,215.6,13"/>
<path class="st2" d="M254.4,29.7c0,0.2,0,0.3-0.2,0.4c-0.1,0-0.2,0.1-0.4,0.2c-0.8,0.3-1.5,0.1-2-0.7c-0.2-0.3-0.4-0.2-0.6-0.1
	c-1,0.4-2,0.7-3,1.1c-2.8,1-6.8-0.3-8.3-4c-0.6-1.5-1-3.2-1.1-4.8c-0.2-2.3-0.1-4.7,0.4-7c0.9-3.8,3.4-6.2,6.9-6.6
	c2.1-0.2,4.1-0.1,6.1,0.8c0.4,0.2,0.8,0.5,1.3,0.7c0.2,0.1,0.2,0.3,0.1,0.5c-0.2,0.6-0.5,1.1-0.7,1.7c-0.1,0.4-0.3,0.4-0.6,0.3
	c-2-1.1-4.1-1.3-6.2-0.9c-1.9,0.4-3,1.7-3.5,3.8c-0.7,3-0.7,6.1,0,9.2c0.6,2.6,1.9,3.6,4.4,3.8c1.4,0.1,2.8-0.2,4.1-0.9
	c0.3-0.1,0.4-0.3,0.4-0.6v-5.6c0-0.4-0.1-0.5-0.4-0.5c-1.2-0.1-2.3-0.2-3.5-0.2c-0.3,0-0.4-0.1-0.4-0.4v-1.7c0-0.3,0.1-0.4,0.3-0.4
	h6.7c0.2,0,0.3,0.1,0.3,0.4V29.7z"/>
<path class="st2" d="M225.7,14.2c0.7-0.3,1.3-0.6,2.1-0.9c1-0.3,2-0.4,3.1-0.3c0.5,0.1,1,0.2,1.4,0.3c2.1,0.7,3.2,2.4,3.6,4.8
	c0.1,0.8,0.2,1.7,0.2,2.5c0,3,0,6.1,0,9.1c0,0.5-0.1,0.5-0.5,0.5h-2.3c-0.4,0-0.5-0.1-0.5-0.5v-9.1c0-0.8,0-1.5-0.2-2.3
	c-0.3-1.4-1-2.2-2.2-2.4c-1.7-0.4-3.4-0.1-4.8,1.2c-0.2,0.2-0.3,0.4-0.3,0.7v11.9c0,0.4-0.1,0.5-0.5,0.5h-2.3
	c-0.4,0-0.4-0.1-0.4-0.5v-22c0-0.3,0.1-0.4,0.4-0.4h2.5c0.3,0,0.4,0.1,0.4,0.4V14C225.4,14.2,225.6,14.3,225.7,14.2"/>
<path class="st2" d="M268.7,16.1c-1.1-2.7-4.1-3.7-6.1-2.7c-0.3,0.1-2.1,1.1-2.3,1.3c-0.1,0-0.1,0-0.1,0c-0.1-0.3-0.4-0.7-0.5-1
	c-0.1-0.3-0.2-0.3-0.4-0.3c-0.1,0-0.2,0.1-0.3,0.1c-0.4,0.2-0.8,0.3-1.3,0.5c-0.3,0.1-0.3,0.2-0.3,0.6v15.4c0,0.4,0.1,0.5,0.4,0.5
	h2.4c0.4,0,0.4-0.1,0.4-0.5V18.7c0-1.2,0.3-1.8,1.2-2.2c0.6-0.3,1.3-0.6,2.1-0.7c0.2,0,0.4,0,0.8,0.1c0.2,0,0.5,0.2,0.5,0.2
	c0.3,0.1,0.7,0.3,1,0.6c0,0,0.4,0.4,0.6,0.7c0.4,0.6,0.5,1,0.8,1c0.2,0,0.3-0.1,0.5-0.2c0.1-0.1,0.6-0.5,0.7-0.7
	C269,17.1,269,17,268.7,16.1"/>
<path class="st2" d="M277.2,13c1.5,0,2.8,0.3,4,0.9c1.7,1,2.8,2.4,3.3,4.5c0.6,2.4,0.7,4.8,0,7.1c-0.9,3-2.8,4.6-5.5,5.1
	c-1.6,0.3-3.3,0.2-4.9-0.5c-2.5-1.2-3.8-3.4-4.2-6.4c-0.2-1.7-0.2-3.4,0.3-5c0.8-3.1,3.2-5.4,6-5.6C276.6,13,277,13,277.2,13
	 M281.7,21.9c0-0.7,0-1.5-0.1-2.2c-0.3-2-1.3-3.3-2.8-3.7c-0.7-0.2-1.4-0.2-2.2-0.1c-1.9,0.2-3,1.4-3.4,3.5c-0.3,1.7-0.3,3.4,0,5.1
	c0.3,1.8,1.2,3,2.9,3.4c0.5,0.1,1.1,0.2,1.7,0.1c2.2-0.2,3.3-1.3,3.8-3.7C281.7,23.5,281.7,22.7,281.7,21.9"/>
<path class="st2" d="M306.5,29.7v6c0,0.5-0.1,0.5-0.5,0.5h-2.2c-0.4,0-0.5-0.1-0.5-0.5v-21c0-0.7,0-0.7,1-1.1
	c0.4-0.2,0.8-0.4,1.1-0.3c0.4,0.1,0.5,0.7,0.7,1.1c0.1,0.3,0.3,0.3,0.5,0.2c0.8-0.4,1.6-0.7,2.4-1.1c1.2-0.5,2.3-0.6,3.5-0.3
	c3.1,0.7,4.9,3.1,5.2,6.7c0.2,2.1,0.2,4.1-0.4,6.1c-0.9,2.8-2.6,4.2-5.1,4.6c-1.9,0.3-3.7,0.1-5.4-0.7
	C306.7,29.8,306.5,29.7,306.5,29.7 M306.5,26.5c0,0.4,0.1,0.5,0.4,0.7c1.3,0.6,2.7,0.9,4.1,0.7c1.9-0.1,3-1.2,3.5-3.4
	c0.4-1.9,0.4-3.8,0-5.6c-0.3-1.6-1.2-2.6-2.6-3c-1.8-0.5-3.5,0-5.2,1c-0.2,0.1-0.2,0.3-0.2,0.5V26.5z"/>
<path class="st2" d="M300.8,29.2c0,0.4-0.1,0.5-0.4,0.6c-0.5,0.2-1,0.3-1.5,0.5c-0.2,0.1-0.3,0-0.4-0.2c-0.2-0.3-0.3-0.6-0.5-0.9
	c-0.2-0.3-0.3-0.3-0.6-0.2c-0.8,0.4-1.5,0.8-2.4,1.1c-1.2,0.5-2.2,0.5-3.3,0.4c-0.4-0.1-0.8-0.2-1.2-0.3c-2.3-0.8-3.3-2.7-3.5-5.3
	c-0.1-1.4-0.1-2.9-0.1-4.4v-6.8c0-0.4,0.1-0.5,0.4-0.5h2.4c0.4,0,0.4,0.1,0.4,0.5v9.1c0,0.6,0,1.3,0.1,1.9c0.3,1.9,1.1,2.7,2.7,3
	c1.6,0.2,3.1-0.1,4.4-1.2c0.2-0.2,0.3-0.4,0.3-0.8v-12c0-0.4,0.1-0.5,0.5-0.5h2.3c0.3,0,0.4,0.1,0.4,0.5V29.2z"/>
<path class="st2" d="M84.7,23.9c-1.8,0-3.8,0.1-5.7-0.2c-0.4-0.1-0.4,0.1-0.4,0.5c0.3,1.6,1.1,2.5,2.6,2.7c1.8,0.2,3.6,0,5.4-0.5
	c0.3-0.1,0.5-0.1,0.6,0.4c0.2,0.7,0.4,1.5,0.6,2.2c0.1,0.4,0,0.5-0.3,0.6c-1.8,0.9-3.8,1.2-5.7,1.1c-1.2,0-2.5-0.2-3.6-0.8
	c-1.9-0.9-3.1-2.5-3.7-4.7c-0.6-2.4-0.6-4.8,0.1-7.1c0.6-2.1,1.8-3.6,3.6-4.4c2.3-1,4.6-1,6.9-0.1c2.1,0.9,3.3,2.7,3.8,5.1
	c0.3,1.5,0.4,3,0.1,4.5c-0.1,0.4-0.2,0.6-0.6,0.6H84.7z M81.8,20.4h2.6c0.6,0,0.6,0,0.6-0.7c-0.1-1.7-0.8-2.6-2-2.9
	c-0.8-0.2-1.6-0.1-2.3,0.1c-0.7,0.2-1.2,0.7-1.5,1.5c-0.2,0.5-0.3,1.1-0.4,1.7c0,0.3,0.1,0.4,0.3,0.3H81.8z"/>
<path class="st2" d="M91.7,9.1c0-0.4,0.1-0.4,0.4-0.5c1.2-0.3,2.3-0.5,3.6-0.8c0.3-0.1,0.4,0,0.4,0.4V30c0,0.3-0.1,0.4-0.4,0.4h-3.7
	c-0.3,0-0.4-0.1-0.4-0.4C91.8,26.3,91.7,12.9,91.7,9.1"/>
<path class="st2" d="M106.6,14.6c0-0.4,0.1-0.5,0.4-0.6c0.7-0.2,1.5-0.4,2.3-0.6c0.3-0.1,0.5-0.1,0.6,0.2c0.5,0.9,1.1,0.9,2,0.5
	c0.4-0.2,0.8-0.4,1.2-0.5c2.3-1,4.4-0.4,6.3,1.2c1,0.9,1.4,2.2,1.6,3.6c0.1,0.9,0.2,1.8,0.2,2.7v8.9c0,0.3-0.1,0.4-0.4,0.4h-3.7
	c-0.3,0-0.4-0.1-0.4-0.5v-9.1c0-0.6,0-1.3-0.2-1.9c-0.2-1-0.7-1.6-1.6-1.8c-1.3-0.2-2.5-0.2-3.6,0.6c-0.2,0.2-0.3,0.4-0.3,0.7v11.3
	c0,0.5-0.1,0.5-0.5,0.5H107c-0.3,0-0.4-0.1-0.4-0.5V14.6z"/>
<path class="st2" d="M146.9,30.7c-2.5,0-4.5-0.3-6.4-1.3c-0.3-0.2-0.4-0.3-0.3-0.7c0.2-0.8,0.5-1.7,0.7-2.5c0.1-0.3,0.2-0.4,0.5-0.3
	c2.1,0.9,4.2,1.2,6.5,0.9c0.3,0,0.5-0.1,0.8-0.2c0.7-0.2,1-0.7,1-1.4c0-0.8-0.3-1.1-1.1-1.3c-1.1-0.2-2.2-0.4-3.3-0.5
	c-1.2-0.2-2.4-0.5-3.4-1.3c-2.4-1.8-2.3-6,0.2-7.8c1.1-0.8,2.4-1.1,3.6-1.3c2.5-0.3,4.9,0.1,7.2,1c0.4,0.1,0.4,0.3,0.3,0.7
	c-0.2,0.8-0.5,1.6-0.7,2.4c-0.1,0.4-0.2,0.4-0.5,0.3c-1.8-0.6-3.7-0.8-5.6-0.7c-0.4,0-0.8,0.1-1.2,0.2c-0.6,0.2-0.8,0.5-0.8,1.1
	c0,0.6,0.3,1,0.9,1.1c0.7,0.1,1.4,0.2,2.1,0.3c1.3,0.2,2.6,0.4,3.9,0.9c1.3,0.6,2.4,1.5,2.7,3.2c0.4,2.7-0.3,5.4-3.3,6.4
	C149.3,30.6,147.9,30.7,146.9,30.7"/>
<path class="st2" d="M57.9,22.6c0.3-1.1,1.9-6.7,2.3-8.4c0.1-0.2,0.1-0.4,0-0.6c-0.4-1.6-0.8-3.2-1.3-4.8c-0.1-0.3-0.1-0.5,0.4-0.5
	h3.9c0.3,0,0.5,0.1,0.5,0.4c1,4.4,2,8.8,3.1,13.2c0,0.1,0.1,0.2,0.1,0.2H67c0.4-1.8,2.6-10.7,3.2-13.5c0.1-0.3,0.2-0.4,0.5-0.4h3.8
	c0.5,0,0.4,0.1,0.4,0.5c-1.6,5.9-5.4,20-5.7,21.2c-0.1,0.3-0.2,0.4-0.5,0.4h-3.6c-0.3,0-0.5-0.1-0.5-0.4c-0.7-2.6-1.4-5.3-2.1-7.9
	h-0.2c-0.4,1.2-1.8,6.5-2.2,7.9c-0.1,0.3-0.2,0.4-0.5,0.4h-3.8c-0.3,0-0.4-0.1-0.5-0.4c-1.9-7.1-3.7-14.2-5.6-21.3
	c-0.1-0.4,0-0.4,0.3-0.4h4c0.3,0,0.4,0.2,0.5,0.4c0.8,3.4,2.9,12.7,3.2,13.9C57.8,22.6,57.8,22.6,57.9,22.6"/>
<path class="st2" d="M99.2,9.1c0-0.4,0.1-0.4,0.4-0.5c1.2-0.3,2.3-0.5,3.6-0.8c0.3-0.1,0.4,0,0.4,0.4V30c0,0.3-0.1,0.4-0.4,0.4h-3.7
	c-0.3,0-0.4-0.1-0.4-0.4C99.2,26.3,99.2,12.9,99.2,9.1"/>
<path class="st2" d="M134,23.9c-1.8,0-3.8,0.1-5.7-0.2c-0.4-0.1-0.4,0.1-0.4,0.5c0.3,1.6,1.1,2.5,2.6,2.7c1.8,0.2,3.6,0,5.4-0.5
	c0.3-0.1,0.5-0.1,0.6,0.4c0.2,0.7,0.4,1.5,0.6,2.2c0.1,0.4,0,0.5-0.3,0.6c-1.8,0.9-3.8,1.2-5.7,1.1c-1.2,0-2.5-0.2-3.6-0.8
	c-1.9-0.9-3.1-2.5-3.7-4.7c-0.6-2.4-0.6-4.8,0.1-7.1c0.6-2.1,1.8-3.6,3.6-4.4c2.3-1,4.6-1,6.9-0.1c2.1,0.9,3.3,2.7,3.8,5.1
	c0.3,1.5,0.4,3,0.1,4.5c-0.1,0.4-0.2,0.6-0.6,0.6H134z M131,20.4h2.6c0.6,0,0.6,0,0.6-0.7c-0.1-1.7-0.8-2.6-2-2.9
	c-0.8-0.2-1.6-0.1-2.3,0.1c-0.7,0.2-1.2,0.7-1.5,1.5c-0.2,0.5-0.3,1.1-0.4,1.7c0,0.3,0,0.4,0.3,0.3H131z"/>
<path class="st2" d="M162,30.7c-2.5,0-4.5-0.3-6.4-1.3c-0.3-0.2-0.4-0.3-0.3-0.7c0.2-0.8,0.5-1.7,0.8-2.5c0.1-0.3,0.2-0.4,0.5-0.3
	c2.1,0.9,4.2,1.2,6.5,0.9c0.3,0,0.6-0.1,0.8-0.2c0.7-0.2,1-0.7,1-1.4c0-0.8-0.3-1.1-1.1-1.3c-1.1-0.2-2.2-0.4-3.3-0.5
	c-1.2-0.2-2.4-0.5-3.4-1.3c-2.4-1.8-2.3-6,0.2-7.8c1.1-0.8,2.4-1.1,3.6-1.3c2.5-0.3,4.9,0.1,7.2,1c0.4,0.1,0.4,0.3,0.3,0.7
	c-0.2,0.8-0.5,1.6-0.7,2.4c-0.1,0.4-0.2,0.4-0.5,0.3c-1.8-0.6-3.7-0.8-5.6-0.7c-0.4,0-0.8,0.1-1.2,0.2c-0.6,0.2-0.8,0.5-0.8,1.1
	c0,0.6,0.3,1,0.9,1.1c0.7,0.1,1.4,0.2,2.1,0.3c1.3,0.2,2.6,0.4,3.9,0.9c1.3,0.6,2.4,1.5,2.7,3.2c0.4,2.7-0.3,5.4-3.3,6.4
	C164.5,30.6,163.1,30.7,162,30.7"/>
<g>
	<defs>
		<path id="SVGID_1_" d="M10.8,2.9c-0.1,0.1-0.2,0.2-0.3,0.3c0,0.1,0,0.3,0.1,0.4l1.1,2c0.2,0.3,0.5,0.4,0.8,0.2
			C17.5,3,23.7,2.6,29,4.9c4.5,2,7.9,5.5,9.7,10.1c1.8,4.6,1.7,9.5-0.3,14c-2,4.5-5.5,7.9-10.1,9.7c-4.6,1.8-9.5,1.7-14-0.3
			C6.9,35.1,2.4,27.2,3.6,19.1c0-0.3-0.2-0.6-0.5-0.6l-2.2-0.3c-0.2,0-0.3,0-0.4,0.1c-0.1,0.1-0.2,0.2-0.2,0.4
			c-1.4,9.6,3.9,19,12.8,22.9c2.8,1.2,5.8,1.8,8.7,1.8c8.4,0,16.3-4.9,19.9-13c2.3-5.3,2.4-11.2,0.3-16.6c-2.1-5.4-6.2-9.7-11.5-12
			C27.6,0.6,24.7,0,21.7,0C17.9,0,14.2,1,10.8,2.9"/>
	</defs>
	<clipPath id="SVGID_2_">
		<use xlink:href="#SVGID_1_"  style="overflow:visible;"/>
	</clipPath>
	
		<linearGradient id="SVGID_3_" gradientUnits="userSpaceOnUse" x1="-902.4604" y1="4395.3589" x2="-901.4604" y2="4395.3589" gradientTransform="matrix(-23.8387 34.6229 34.6229 23.8387 -173660.4375 -73529.125)">
		<stop  offset="0" style="stop-color:#0080B1"/>
		<stop  offset="0.3366" style="stop-color:#288F8E"/>
		<stop  offset="0.7009" style="stop-color:#45A23C"/>
		<stop  offset="1" style="stop-color:#B2C624"/>
	</linearGradient>
	<polygon class="st0" points="64.2,13.9 29.5,64.4 -21.4,29.4 13.4,-21.1 	"/>
</g>
<g>
	<defs>
		<path id="SVGID_4_" d="M16.1,7.4c-3.8,1.5-6.8,4.4-8.5,8.1c-0.6,1.3-0.9,2.6-1.1,4c0,0.3,0.2,0.6,0.5,0.6l2.2,0.3
			c0.3,0,0.6-0.2,0.6-0.5c0.2-1.1,0.4-2.1,0.9-3.1c1.3-2.9,3.6-5.2,6.6-6.3c3-1.2,6.2-1.1,9.1,0.2c2.9,1.3,5.2,3.6,6.3,6.6
			c1.2,3,1.1,6.2-0.2,9.1c-2.6,6-9.7,8.8-15.7,6.2c-1.6-0.7-3-1.7-4.1-3c-0.1-0.1-0.2-0.2-0.4-0.2c-0.1,0-0.3,0-0.4,0.1l-1.7,1.5
			c-0.1,0.1-0.2,0.2-0.2,0.4c0,0.1,0,0.3,0.1,0.4c1.5,1.6,3.3,2.9,5.3,3.8c2,0.9,4.1,1.3,6.1,1.3c5.9,0,11.6-3.4,14.1-9.2
			c1.6-3.7,1.7-7.9,0.2-11.7c-1.5-3.8-4.4-6.8-8.1-8.5c-2-0.9-4-1.3-6.1-1.3C19.8,6.3,17.9,6.7,16.1,7.4"/>
	</defs>
	<clipPath id="SVGID_5_">
		<use xlink:href="#SVGID_4_"  style="overflow:visible;"/>
	</clipPath>
	
		<linearGradient id="SVGID_6_" gradientUnits="userSpaceOnUse" x1="-902.4604" y1="4395.3921" x2="-901.4604" y2="4395.3921" gradientTransform="matrix(-23.8387 34.6229 34.6229 23.8387 -173661.25 -73529.6875)">
		<stop  offset="0" style="stop-color:#0080B1"/>
		<stop  offset="0.3366" style="stop-color:#288F8E"/>
		<stop  offset="0.7009" style="stop-color:#45A23C"/>
		<stop  offset="1" style="stop-color:#B2C624"/>
	</linearGradient>
	<polygon class="st1" points="51.8,16.2 27.5,51.5 -7.9,27.2 16.4,-8.2 	"/>
</g>
<g>
	<defs>
		<path id="SVGID_7_" d="M18.4,13.2c-2.2,0.9-4,2.6-5,4.8c-1,2.2-1,4.7-0.1,6.9c0.4,1,1,1.9,1.7,2.7c0.2,0.2,0.6,0.2,0.8,0l1.7-1.5
			c0.1-0.1,0.2-0.2,0.2-0.4c0-0.1,0-0.3-0.1-0.4c-0.5-0.5-0.8-1.1-1.1-1.7c-0.6-1.4-0.5-3,0.1-4.4c0.6-1.4,1.7-2.5,3.1-3
			c2.9-1.1,6.2,0.3,7.4,3.2c0.6,1.4,0.5,3-0.1,4.4c-0.6,1.4-1.7,2.5-3.1,3c-0.6,0.3-1.3,0.4-2,0.4c-0.3,0-0.6,0.3-0.5,0.6l0,2.2
			c0,0.3,0.3,0.5,0.6,0.5h0c1.1,0,2.1-0.2,3.1-0.6c2.2-0.9,4-2.6,5-4.8c1-2.2,1-4.7,0.1-6.9c-0.9-2.2-2.6-4-4.8-5
			c-1.2-0.5-2.4-0.8-3.6-0.8C20.6,12.6,19.5,12.8,18.4,13.2"/>
	</defs>
	<clipPath id="SVGID_8_">
		<use xlink:href="#SVGID_7_"  style="overflow:visible;"/>
	</clipPath>
	
		<linearGradient id="SVGID_9_" gradientUnits="userSpaceOnUse" x1="-902.4604" y1="4395.3882" x2="-901.4604" y2="4395.3882" gradientTransform="matrix(-23.8387 34.6229 34.6229 23.8387 -173661.2813 -73529.7188)">
		<stop  offset="0" style="stop-color:#0080B1"/>
		<stop  offset="0.3366" style="stop-color:#288F8E"/>
		<stop  offset="0.7009" style="stop-color:#45A23C"/>
		<stop  offset="1" style="stop-color:#B2C624"/>
	</linearGradient>
	<polygon class="st3" points="39.4,18.4 25,39.3 4,24.8 18.4,3.9 	"/>
</g>
</svg>
